<?xml version="1.0" encoding="UTF-8" standalone="no" ?>
<!DOCTYPE svg PUBLIC "-//W3C//DTD SVG 1.1//EN" "http://www.w3.org/Graphics/SVG/1.1/DTD/svg11.dtd">
<svg xmlns="http://www.w3.org/2000/svg" xmlns:xlink="http://www.w3.org/1999/xlink" version="1.1" width="350" height="350" viewBox="0 0 350 350" xml:space="preserve">
<desc>Created with Fabric.js 1.7.22</desc>
<defs>
</defs>
<g id="icon" style="stroke: none; stroke-width: 1; stroke-dasharray: none; stroke-linecap: butt; stroke-linejoin: miter; stroke-miterlimit: 10; fill: none; fill-rule: nonzero; opacity: 1;" transform="translate(-1.9444444444444287 -1.9444444444444287) scale(3.89 3.89)" >
	<path d="M 45 71.479 L 45 71.479 c -0.32 0 -0.622 -0.153 -0.81 -0.413 c -1.065 -1.47 -3.481 -2.152 -6.278 -2.942 c -6.959 -1.967 -16.49 -4.66 -16.49 -22.319 c 0 -21.606 11.576 -38.498 23.049 -45.654 c 0.324 -0.202 0.734 -0.202 1.059 0 c 11.473 7.156 23.049 24.047 23.049 45.654 c 0 17.659 -9.531 20.352 -16.49 22.319 c -2.797 0.79 -5.213 1.473 -6.278 2.942 C 45.622 71.326 45.32 71.479 45 71.479 z M 45 2.186 C 34.172 9.234 23.422 25.3 23.422 45.805 c 0 16.146 8.336 18.501 15.034 20.394 C 41.101 66.946 43.444 67.608 45 69 c 1.557 -1.392 3.899 -2.054 6.544 -2.801 c 6.698 -1.893 15.034 -4.248 15.034 -20.394 C 66.578 25.3 55.828 9.234 45 2.186 z" style="stroke: none; stroke-width: 1; stroke-dasharray: none; stroke-linecap: butt; stroke-linejoin: miter; stroke-miterlimit: 10; fill: rgb(0,0,0); fill-rule: nonzero; opacity: 1;" transform=" matrix(1 0 0 1 0 0) " stroke-linecap="round" />
	<path d="M 45 90 c -0.552 0 -1 -0.447 -1 -1 V 23.479 c 0 -0.552 0.448 -1 1 -1 s 1 0.448 1 1 V 89 C 46 89.553 45.552 90 45 90 z" style="stroke: none; stroke-width: 1; stroke-dasharray: none; stroke-linecap: butt; stroke-linejoin: miter; stroke-miterlimit: 10; fill: rgb(0,0,0); fill-rule: nonzero; opacity: 1;" transform=" matrix(1 0 0 1 0 0) " stroke-linecap="round" />
	<path d="M 45.001 58.479 c -0.31 0 -0.615 -0.144 -0.811 -0.413 c -0.669 -0.923 -2.345 -1.438 -4.285 -2.034 c -1.132 -0.349 -2.415 -0.742 -3.66 -1.279 c -3.766 -1.623 -6.16 -4.161 -7.117 -7.543 c -0.15 -0.532 0.159 -1.084 0.69 -1.235 c 0.531 -0.151 1.084 0.159 1.234 0.69 c 0.795 2.813 2.752 4.858 5.983 6.252 c 1.145 0.493 2.319 0.854 3.456 1.203 c 2.283 0.702 4.254 1.308 5.316 2.772 c 0.324 0.447 0.225 1.072 -0.223 1.396 C 45.41 58.418 45.204 58.479 45.001 58.479 z" style="stroke: none; stroke-width: 1; stroke-dasharray: none; stroke-linecap: butt; stroke-linejoin: miter; stroke-miterlimit: 10; fill: rgb(0,0,0); fill-rule: nonzero; opacity: 1;" transform=" matrix(1 0 0 1 0 0) " stroke-linecap="round" />
	<path d="M 44.999 47.479 c -0.203 0 -0.409 -0.062 -0.586 -0.19 c -0.447 -0.324 -0.547 -0.949 -0.223 -1.396 c 0.908 -1.253 2.556 -1.759 4.464 -2.346 c 0.931 -0.286 1.893 -0.582 2.826 -0.984 c 2.605 -1.123 4.183 -2.767 4.822 -5.027 c 0.149 -0.532 0.707 -0.839 1.234 -0.69 c 0.531 0.15 0.84 0.703 0.689 1.234 c -0.802 2.836 -2.806 4.963 -5.955 6.32 c -1.033 0.445 -2.094 0.771 -3.029 1.059 c -1.5 0.461 -2.917 0.896 -3.433 1.608 C 45.614 47.336 45.309 47.479 44.999 47.479 z" style="stroke: none; stroke-width: 1; stroke-dasharray: none; stroke-linecap: butt; stroke-linejoin: miter; stroke-miterlimit: 10; fill: rgb(0,0,0); fill-rule: nonzero; opacity: 1;" transform=" matrix(1 0 0 1 0 0) " stroke-linecap="round" />
	<path d="M 45.001 37.479 c -0.31 0 -0.615 -0.143 -0.811 -0.413 c -0.355 -0.49 -1.418 -0.817 -2.542 -1.162 c -0.73 -0.225 -1.559 -0.479 -2.37 -0.829 c -2.505 -1.08 -4.1 -2.776 -4.74 -5.041 c -0.15 -0.531 0.159 -1.084 0.69 -1.234 c 0.53 -0.15 1.084 0.159 1.234 0.69 c 0.475 1.681 1.655 2.907 3.607 3.748 c 0.711 0.307 1.451 0.534 2.166 0.753 c 1.454 0.447 2.826 0.869 3.574 1.9 c 0.324 0.447 0.225 1.072 -0.223 1.396 C 45.41 37.417 45.204 37.479 45.001 37.479 z" style="stroke: none; stroke-width: 1; stroke-dasharray: none; stroke-linecap: butt; stroke-linejoin: miter; stroke-miterlimit: 10; fill: rgb(0,0,0); fill-rule: nonzero; opacity: 1;" transform=" matrix(1 0 0 1 0 0) " stroke-linecap="round" />
</g>
</svg>